<svg width="107" height="28" viewBox="0 0 107 28" fill="none" xmlns="http://www.w3.org/2000/svg">
<g clip-path="url(#clip0_1_19)">
<path d="M14.007 16.1263L12.6928 19.8415C12.6543 19.9439 12.6543 20.0576 12.6928 20.16L14.9433 26.5563L17.5543 24.997L14.4244 16.1193C14.3946 16.0283 14.3089 15.9679 14.2135 15.9688C14.1181 15.9705 14.0341 16.0344 14.007 16.1263ZM16.632 9.87001C16.562 9.66438 16.2855 9.66438 16.2085 9.87001L14.8934 13.5853C14.8549 13.6876 14.8549 13.8014 14.8934 13.9038L18.5876 24.381L21.1986 22.8218L16.632 9.87001Z" fill="white"/>
<path d="M11.9971 1.7325C12.0628 1.73338 12.1266 1.75175 12.1835 1.785L22.1253 7.72362C22.2408 7.78925 22.3108 7.91613 22.3108 8.05525V19.9316C22.3108 20.0716 22.2408 20.1968 22.1253 20.2641L12.1835 26.2089C12.1266 26.2421 12.0628 26.2605 11.9971 26.2614C11.9315 26.2605 11.8676 26.2421 11.8116 26.2089L1.86989 20.2703C1.75264 20.2011 1.68089 20.0742 1.68352 19.9377V8.05612C1.68352 7.91612 1.75439 7.79012 1.86989 7.72362L11.8116 1.785C11.8676 1.75175 11.9315 1.73338 11.9971 1.7325ZM11.9971 0C11.6445 0 11.2858 0.09975 10.9716 0.28525L1.02989 6.22388C0.39114 6.61325 0.00264049 7.30713 0.00351549 8.05525V19.9316C-0.000859513 20.6815 0.388516 21.3797 1.02989 21.7691L10.9708 27.7078C11.2858 27.9002 11.6384 27.993 11.9971 27.993C12.3559 27.993 12.7094 27.8941 13.0235 27.7078L22.9653 21.77C23.6075 21.3815 23.9969 20.6833 23.9916 19.9325V8.05437C23.996 7.3045 23.6066 6.60625 22.9653 6.21688L13.0235 0.284375C12.712 0.100625 12.3585 0.002625 11.9971 0Z" fill="white"/>
<path d="M11.1545 7.21176H8.63365C8.44203 7.21264 8.27228 7.33601 8.21015 7.51714L2.80878 22.8445L5.4189 24.4038L11.3715 7.52414C11.3969 7.45239 11.3864 7.37364 11.3427 7.31151C11.2998 7.24939 11.2289 7.21176 11.1528 7.21176H11.1545ZM15.5645 7.21176H13.0437C12.852 7.21264 12.6823 7.33601 12.6202 7.51714L6.45753 25.0136L9.06765 26.5729L15.7763 7.52501C15.8034 7.45501 15.7938 7.37626 15.7518 7.31326C15.7098 7.25114 15.6398 7.21351 15.5645 7.21264V7.21176ZM34.7227 10.4029C34.9729 10.4029 35.1847 10.4554 35.357 10.5621C35.5303 10.668 35.6974 10.8806 35.8645 11.186L39.1545 17.3635C39.1869 17.4291 39.193 17.4886 39.1738 17.535C39.1545 17.5814 39.1099 17.6015 39.0329 17.6015H37.7694C37.66 17.6015 37.583 17.5551 37.5445 17.4694L36.8393 16.1481H32.1694L31.4834 17.4694C31.4388 17.5621 31.3609 17.6015 31.2585 17.6015H29.9697C29.8804 17.6015 29.8288 17.5753 29.8157 17.535C29.8025 17.4956 29.8025 17.4361 29.8419 17.3626L33.0995 11.1851C33.2658 10.8736 33.4268 10.668 33.5869 10.5621C33.7479 10.4554 33.9273 10.4029 34.1382 10.4029H34.7227ZM32.7915 14.9406H36.2102L34.6325 11.9289C34.6063 11.8825 34.5687 11.8554 34.524 11.8554H34.4593C34.4147 11.8554 34.3762 11.8816 34.3508 11.9289L32.7915 14.9406ZM46.3838 10.402C47.1468 10.402 47.6919 10.5814 48.0192 10.9331C48.3464 11.2849 48.5197 11.816 48.5197 12.5125V13.0961C48.5197 13.6868 48.4042 14.1514 48.1732 14.4961C47.9422 14.8409 47.5633 15.0605 47.0374 15.1524L48.7375 17.3294C48.769 17.3626 48.7822 17.416 48.7638 17.4816C48.7507 17.5481 48.699 17.5814 48.6028 17.5814H47.3262C47.2649 17.5831 47.2045 17.5744 47.1468 17.5551C47.1118 17.5254 47.0794 17.4921 47.0505 17.4554L45.479 15.3186H42.266V17.3626C42.266 17.5088 42.1952 17.5884 42.0473 17.5884H40.9702C40.8162 17.5884 40.7453 17.5149 40.7453 17.3626V10.7074C40.7453 10.5018 40.8415 10.3959 41.0472 10.3959L46.3838 10.402ZM42.2722 14.0718H46.0758C46.4153 14.0718 46.6533 13.9983 46.7872 13.846C46.9289 13.6999 46.9989 13.468 46.9989 13.1556V12.7251C46.9989 12.4128 46.9289 12.187 46.7872 12.0339C46.6472 11.8886 46.4092 11.809 46.0758 11.809H42.4008C42.3107 11.809 42.2722 11.8484 42.2722 11.935V14.0718ZM56.8269 10.4029C57.5068 10.4029 57.9942 10.549 58.2829 10.8273C58.5717 11.1064 58.7125 11.5308 58.7125 12.1013V12.5921C58.7125 13.1626 58.5008 13.601 58.0773 13.8994C58.5323 14.1706 58.7642 14.616 58.7642 15.2198V15.8165C58.7642 16.0886 58.7379 16.3415 58.674 16.5533C58.6198 16.7615 58.5192 16.954 58.3792 17.1176C58.2383 17.2699 58.0642 17.3889 57.834 17.4764C57.5654 17.5648 57.2828 17.6076 57.0002 17.6015H51.0992C50.9005 17.6015 50.7982 17.5018 50.7982 17.29V10.7144C50.7982 10.5088 50.8944 10.4029 51.0992 10.4029H56.8269ZM52.3242 13.3875H56.3973C56.7307 13.3875 56.9485 13.335 57.071 13.2353C57.1927 13.1355 57.2504 12.9824 57.2504 12.7838V12.432C57.2504 12.2194 57.1927 12.0671 57.0772 11.9613C56.9617 11.8615 56.7692 11.8151 56.5189 11.8151H52.4528C52.3627 11.8151 52.3242 11.8615 52.3242 11.9481V13.3875ZM52.3242 14.5084V16.0414C52.3242 16.1341 52.3697 16.1744 52.4528 16.1744H56.525C56.7884 16.1744 56.9809 16.1219 57.0903 16.0283C57.1988 15.9355 57.2635 15.7693 57.2635 15.5505V15.1594C57.2635 14.9468 57.1988 14.7875 57.0833 14.6816C56.9617 14.5749 56.7368 14.5154 56.4034 14.5154L52.3242 14.5084ZM62.4698 10.4029C62.6107 10.4029 62.6885 10.4755 62.6885 10.6286V17.3696C62.6885 17.5158 62.6177 17.5954 62.4698 17.5954H61.3927C61.2387 17.5954 61.1678 17.5219 61.1678 17.3696V10.6286C61.1678 10.4825 61.2448 10.4029 61.3927 10.4029H62.4698ZM72.8788 10.4029C73.0328 10.4029 73.1037 10.4755 73.1037 10.6286V11.6366C73.1037 11.7959 73.0267 11.8694 72.8797 11.8694H69.762V17.3696C69.762 17.5158 69.692 17.5954 69.5433 17.5954H68.46C68.3192 17.5954 68.2413 17.5219 68.2413 17.3696V11.8694H65.1245C64.9714 11.8694 64.9005 11.7898 64.9005 11.6366V10.6286C64.9005 10.4825 64.9775 10.4029 65.1245 10.4029H72.8788ZM80.7372 10.402C81.501 10.402 82.0462 10.5814 82.3795 10.9331C82.7129 11.2849 82.88 11.816 82.88 12.5125V13.0961C82.88 13.6868 82.7645 14.1514 82.5335 14.4961C82.3025 14.8409 81.9237 15.0605 81.3978 15.1524L83.0979 17.3294C83.1303 17.3626 83.1425 17.416 83.1242 17.4816C83.111 17.5481 83.0594 17.5814 82.9632 17.5814H81.6865C81.6253 17.5831 81.5649 17.5744 81.5072 17.5551C81.4748 17.5289 81.4433 17.4956 81.4048 17.4554L79.8333 15.3186H76.6194V17.3626C76.6194 17.5088 76.5494 17.5884 76.4015 17.5884H75.3244C75.1704 17.5884 75.0995 17.5149 75.0995 17.3626V10.7074C75.0995 10.5018 75.2019 10.3959 75.4014 10.3959L80.7372 10.402ZM76.6264 14.0718H80.43C80.7695 14.0718 81.0075 13.9983 81.1414 13.846C81.2823 13.6999 81.3532 13.468 81.3532 13.1556V12.7251C81.3532 12.4128 81.2832 12.187 81.1414 12.0339C81.0005 11.8886 80.7634 11.809 80.4292 11.809H76.7542C76.6649 11.809 76.6264 11.8484 76.6264 11.935V14.0718ZM86.3214 10.4029C86.4623 10.4029 86.5402 10.4755 86.5402 10.6286V14.7289C86.5402 15.0001 86.5585 15.2329 86.604 15.4114C86.6478 15.5978 86.7195 15.7369 86.8219 15.8436C86.9313 15.9574 87.0722 16.0361 87.2262 16.0694C87.3994 16.1158 87.6103 16.135 87.8675 16.135H90.6185C90.8819 16.135 91.0867 16.1088 91.2599 16.0685C91.4139 16.0344 91.5539 15.9565 91.6642 15.8436C91.7735 15.7229 91.847 15.5733 91.8759 15.4123C91.9179 15.1874 91.938 14.9581 91.9337 14.7289V10.6286C91.9337 10.4825 92.0045 10.4029 92.1515 10.4029H93.2357C93.3765 10.4029 93.4535 10.4755 93.4535 10.6286V14.8811C93.4535 15.372 93.4028 15.7903 93.3065 16.1411C93.219 16.4579 93.0537 16.7484 92.8253 16.9846C92.6074 17.2034 92.3187 17.3565 91.959 17.4554C91.6064 17.5551 91.1768 17.6015 90.6763 17.6015H87.8098C87.3093 17.6015 86.8797 17.5551 86.5323 17.4554C86.1867 17.3565 85.8979 17.2034 85.6739 16.9846C85.4552 16.7659 85.2889 16.4868 85.1865 16.142C85.0833 15.7973 85.0325 15.372 85.0325 14.882V10.6286C85.0325 10.4825 85.1095 10.4029 85.2565 10.4029H86.3214ZM97.7227 10.4029C97.8644 10.4029 97.9922 10.416 98.1015 10.4291C98.2039 10.4554 98.3002 10.4886 98.3772 10.5481C98.4542 10.6085 98.525 10.6881 98.595 10.7809C98.6528 10.8806 98.7237 11.0066 98.7875 11.179L100.853 16.1088C100.874 16.1674 100.932 16.2059 100.994 16.2015H101.116C101.18 16.2015 101.225 16.1753 101.257 16.1088L103.323 11.179C103.387 11.0128 103.457 10.8806 103.515 10.7809C103.569 10.6873 103.643 10.6076 103.733 10.549C103.813 10.4895 103.905 10.4484 104.003 10.4291C104.105 10.4029 104.227 10.4029 104.374 10.4029H105.439C105.779 10.4029 106.016 10.4816 106.138 10.6418C106.26 10.801 106.318 11.0793 106.318 11.4643V17.3626C106.318 17.5088 106.241 17.5884 106.093 17.5884H105.067C104.926 17.5884 104.849 17.5158 104.849 17.3626V11.9963C104.849 11.9298 104.823 11.8895 104.772 11.8895H104.682C104.618 11.8895 104.573 11.9158 104.554 11.9691L102.553 16.5743C102.486 16.7388 102.405 16.8963 102.309 17.045C102.233 17.1605 102.145 17.2673 102.046 17.3635C101.95 17.4431 101.84 17.5096 101.719 17.5429C101.597 17.5761 101.456 17.5954 101.289 17.5954H100.815C100.648 17.5954 100.507 17.5761 100.384 17.5429C100.263 17.5096 100.151 17.4484 100.058 17.3635C99.9539 17.2725 99.8647 17.1649 99.7947 17.045C99.6975 16.8971 99.6162 16.7396 99.5514 16.5743L97.5503 11.9691C97.531 11.9096 97.4925 11.8904 97.4217 11.8904H97.3315C97.2738 11.8904 97.2545 11.9228 97.2545 11.9954V17.3635C97.2545 17.5096 97.1845 17.5893 97.0367 17.5893H96.0234C95.8694 17.5893 95.7985 17.5166 95.7985 17.3635V11.4651C95.7985 11.074 95.8563 10.8019 95.9788 10.6426C96.1004 10.4834 96.3314 10.4038 96.684 10.4038H97.7227V10.4029Z" fill="white"/>
</g>
<defs>
<clipPath id="clip0_1_19">
<rect width="106.75" height="28" fill="white"/>
</clipPath>
</defs>
</svg>
