<svg width="124" height="24" viewBox="0 0 124 24" fill="none" xmlns="http://www.w3.org/2000/svg">
<g clip-path="url(#clip0_1_25)">
<path d="M-16.5925 22.9275C-17.6935 22.938 -18.7885 22.7655 -19.8325 22.4175C-20.779 22.1085 -21.6415 21.585 -22.3525 20.8875C-23.0365 20.2065 -23.5255 19.3575 -23.8225 18.3375C-24.0985 17.3175 -24.1345 16.1265 -23.932 14.7675C-23.785 13.9065 -23.6275 13.047 -23.461 12.1875L-22.906 9.57752C-22.2985 6.87752 -21.199 4.82701 -19.612 3.42751C-18.0235 2.02501 -15.88 1.32751 -13.186 1.32751C-12.0235 1.32751 -10.951 1.50751 -9.97301 1.86751C-9.02051 2.17951 -8.15652 2.71501 -7.45302 3.42751C-6.75102 4.12651 -6.26202 4.98752 -5.98452 6.00752C-5.68902 7.02752 -5.65302 8.21702 -5.87352 9.57752C-6.00252 10.452 -6.16002 11.322 -6.34451 12.1875C-6.51101 13.0485 -6.68652 13.9095 -6.87102 14.7675C-7.49952 17.5065 -8.60652 19.557 -10.195 20.9175C-11.7835 22.257 -13.915 22.9275 -16.5925 22.9275ZM-16.2325 18.6075C-15.235 18.6075 -14.3575 18.2865 -13.6015 17.6475C-12.844 17.007 -12.3085 15.987 -11.9965 14.5875C-11.7925 13.707 -11.617 12.8775 -11.4685 12.0975C-11.3035 11.3175 -11.155 10.5075 -11.026 9.66752C-10.786 8.26652 -10.897 7.24652 -11.3575 6.60751C-11.8195 5.96701 -12.5485 5.64752 -13.5475 5.64752C-14.5435 5.64752 -15.4195 5.96701 -16.177 6.60751C-16.9165 7.24652 -17.4415 8.26652 -17.7565 9.66752C-17.959 10.5075 -18.1435 11.3175 -18.31 12.0975C-18.466 12.9255 -18.613 13.7565 -18.7525 14.5875C-18.9745 15.987 -18.8635 17.007 -18.421 17.6475C-17.977 18.2865 -17.248 18.6075 -16.2325 18.6075ZM-2.94102 22.6275C-3.11352 22.6335 -3.27851 22.554 -3.38351 22.4175C-3.49451 22.2765 -3.53202 22.0965 -3.49452 21.8775L0.327484 2.37751C0.358984 2.16601 0.468481 1.97401 0.631981 1.83751C0.775982 1.70701 0.961983 1.63201 1.15698 1.62751H8.52498C9.65148 1.62751 10.667 1.76701 11.5715 2.04751C12.4955 2.32651 13.262 2.75701 13.871 3.33751C14.48 3.91651 14.906 4.64701 15.146 5.52751C15.386 6.38701 15.3935 7.39651 15.173 8.55751C14.711 10.857 13.769 12.5565 12.347 13.6575C10.9445 14.757 9.05148 15.3075 6.66948 15.3075H2.93148L1.65648 21.8775C1.62498 22.089 1.51548 22.281 1.35198 22.4175C1.21098 22.554 1.02348 22.6305 0.826984 22.6275H-2.94102ZM3.65148 11.1675H6.83598C7.56498 11.1765 8.27598 10.944 8.85798 10.5075C9.46698 10.0665 9.86298 9.39752 10.049 8.49751C10.1405 7.97701 10.16 7.51651 10.1045 7.11752C10.0565 6.72901 9.84498 6.37952 9.52248 6.15752C9.20748 5.91752 8.71998 5.79751 8.05398 5.79751H4.73148L3.65148 11.1675ZM20.2895 22.6275C20.108 22.638 19.9325 22.5585 19.8185 22.4175C19.7045 22.2615 19.6655 22.065 19.709 21.8775L22.784 6.33751H17.8535C17.681 6.34351 17.5145 6.26552 17.4095 6.12752C17.2985 5.96702 17.2625 5.78701 17.2985 5.58751L17.936 2.37751C17.966 2.17201 18.0635 1.98151 18.2135 1.83751C18.3665 1.70251 18.563 1.62751 18.767 1.62751H33.6665C33.8705 1.62751 34.0175 1.69651 34.1105 1.83751C34.2215 1.97701 34.2575 2.15701 34.2215 2.37751L33.584 5.58751C33.542 5.79601 33.4355 5.98501 33.2795 6.12752C33.14 6.26402 32.951 6.34052 32.7545 6.33751H27.824L24.7775 21.8775C24.7445 22.089 24.6365 22.281 24.4715 22.4175C24.3305 22.554 24.143 22.6305 23.9465 22.6275H20.2895ZM34.802 22.6275C34.6205 22.638 34.445 22.5585 34.331 22.4175C34.22 22.2765 34.1825 22.0965 34.22 21.8775L38.069 2.37751C38.1005 2.16601 38.2085 1.97401 38.3735 1.83751C38.5175 1.70551 38.705 1.63201 38.9 1.62751H42.6395C42.824 1.62751 42.971 1.69651 43.082 1.83751C43.193 1.97701 43.2305 2.15701 43.193 2.37751L39.344 21.8775C39.3125 22.089 39.203 22.281 39.0395 22.4175C38.9075 22.551 38.7275 22.626 38.54 22.6275H34.802ZM46.163 22.6275C45.9815 22.638 45.806 22.5585 45.692 22.4175C45.581 22.2765 45.545 22.0965 45.581 21.8775L49.403 2.37751C49.436 2.16601 49.544 1.97401 49.709 1.83751C49.862 1.70251 50.0585 1.62751 50.2625 1.62751H53.2535C53.549 1.62751 53.7515 1.71751 53.8625 1.89751C53.966 2.01451 54.05 2.14501 54.1115 2.28751L57.104 11.7675L63.8615 2.28751C63.917 2.18701 64.0265 2.05651 64.193 1.89751C64.3865 1.71451 64.646 1.61701 64.913 1.62751H67.904C68.108 1.62751 68.264 1.69651 68.375 1.83751C68.486 1.97701 68.5235 2.15701 68.486 2.37751L64.664 21.8775C64.6325 22.089 64.523 22.281 64.3595 22.4175C64.2065 22.5525 64.0085 22.6275 63.8045 22.6275H60.482C60.3095 22.6335 60.1445 22.554 60.0395 22.4175C59.9285 22.2765 59.891 22.0965 59.9285 21.8775L62.0885 10.8075L57.851 16.8975C57.7085 17.0715 57.551 17.232 57.38 17.3775C57.2 17.523 56.9735 17.5965 56.7425 17.5875H55.3025C55.0445 17.5875 54.86 17.517 54.749 17.3775C54.6365 17.235 54.5525 17.0715 54.5 16.8975L52.5335 10.5375L50.2895 21.8775C50.258 22.089 50.1485 22.281 49.985 22.4175C49.853 22.551 49.6745 22.626 49.487 22.6275H46.163ZM70.595 22.6275C70.4135 22.638 70.238 22.5585 70.124 22.4175C70.013 22.2765 69.9755 22.0965 70.013 21.8775L73.8635 2.37751C73.895 2.16601 74.003 1.97401 74.168 1.83751C74.312 1.70701 74.498 1.63201 74.693 1.62751H78.4325C78.617 1.62751 78.7655 1.69651 78.8765 1.83751C78.986 1.97701 79.0235 2.15701 78.986 2.37751L75.137 21.8775C75.1055 22.089 74.996 22.281 74.8325 22.4175C74.7005 22.551 74.5205 22.626 74.333 22.6275H70.595ZM88.1045 22.9275C86.258 22.9275 84.7445 22.647 83.5625 22.0875C82.3985 21.5265 81.5585 20.787 81.0425 19.8675C80.5505 18.96 80.3645 17.919 80.516 16.8975C80.5505 16.74 80.627 16.596 80.7365 16.4775C80.8475 16.3455 81.0095 16.269 81.1805 16.2675H84.725C84.9845 16.2675 85.169 16.317 85.28 16.4175C85.3895 16.5165 85.5005 16.647 85.6115 16.8075C85.6865 17.1075 85.8335 17.397 86.0555 17.6775C86.276 17.9565 86.5805 18.1875 86.969 18.3675C87.374 18.5265 87.8735 18.6075 88.4645 18.6075C89.5355 18.6075 90.3935 18.4275 91.04 18.0675C91.685 17.7075 92.0645 17.217 92.1755 16.5975C92.2865 16.1565 92.213 15.7965 91.9535 15.5175C91.7135 15.2175 91.28 14.9565 90.653 14.7375C90.0425 14.4975 89.222 14.2575 88.187 14.0175C86.84 13.6965 85.7315 13.257 84.8645 12.6975C83.996 12.117 83.387 11.3865 83.036 10.5075C82.703 9.60752 82.658 8.53651 82.898 7.29751C83.267 5.45701 84.1805 4.00651 85.64 2.94751C87.098 1.86751 88.991 1.32751 91.3175 1.32751C92.5175 1.32751 93.5795 1.50751 94.502 1.86751C95.444 2.22751 96.2285 2.70751 96.857 3.30751C97.484 3.90752 97.937 4.54651 98.213 5.22751C98.4905 5.88752 98.582 6.53701 98.4905 7.17752C98.4665 7.34701 98.3885 7.50601 98.2685 7.62751C98.15 7.74301 97.991 7.80751 97.826 7.80751H94.115C93.941 7.81051 93.7685 7.76851 93.6155 7.68751C93.4715 7.59001 93.3575 7.45501 93.284 7.29751C93.284 6.85651 93.071 6.47702 92.6465 6.15752C92.222 5.81702 91.658 5.64752 90.9575 5.64752C90.1625 5.64752 89.498 5.80652 88.9625 6.12752C88.427 6.42752 88.0955 6.89702 87.9665 7.53752C87.8735 7.93652 87.92 8.28752 88.1045 8.58752C88.307 8.88752 88.676 9.14701 89.2115 9.36751C89.7665 9.58651 90.5225 9.81751 91.4825 10.0575C93.1085 10.3965 94.382 10.857 95.306 11.4375C96.2285 11.997 96.8465 12.7065 97.1615 13.5675C97.493 14.427 97.5395 15.477 97.2995 16.7175C96.8945 18.7575 95.9045 20.307 94.3355 21.3675C92.7845 22.407 90.707 22.9275 88.1045 22.9275ZM100.709 22.6275C100.527 22.638 100.352 22.5585 100.238 22.4175C100.127 22.2765 100.091 22.0965 100.127 21.8775L103.949 2.37751C103.98 2.16601 104.088 1.97401 104.253 1.83751C104.406 1.70251 104.604 1.62751 104.808 1.62751H107.799C108.095 1.62751 108.297 1.71751 108.408 1.89751C108.512 2.01451 108.596 2.14501 108.657 2.28751L111.648 11.7675L118.406 2.28751C118.461 2.18701 118.572 2.05651 118.739 1.89751C118.932 1.71451 119.192 1.61701 119.459 1.62751H122.45C122.654 1.62751 122.81 1.69651 122.921 1.83751C123.032 1.97701 123.069 2.15701 123.032 2.37751L119.21 21.8775C119.178 22.089 119.069 22.281 118.905 22.4175C118.752 22.5525 118.554 22.6275 118.35 22.6275H115.028C114.855 22.6335 114.689 22.5555 114.584 22.4175C114.47 22.2615 114.431 22.065 114.474 21.8775L116.634 10.8075L112.397 16.8975C112.254 17.0715 112.097 17.232 111.926 17.3775C111.746 17.523 111.519 17.5965 111.288 17.5875H109.848C109.59 17.5875 109.406 17.517 109.293 17.3775C109.182 17.235 109.098 17.0715 109.046 16.8975L107.079 10.5375L104.835 21.8775C104.804 22.089 104.694 22.281 104.531 22.4175C104.399 22.551 104.22 22.626 104.033 22.6275H100.709Z" fill="white"/>
</g>
<defs>
<clipPath id="clip0_1_25">
<rect width="148.5" height="24" fill="white" transform="translate(-25)"/>
</clipPath>
</defs>
</svg>
