<svg width="84" height="32" viewBox="0 0 84 32" fill="none" xmlns="http://www.w3.org/2000/svg">
<g clip-path="url(#clip0_1_138)">
<mask id="mask0_1_138" style="mask-type:luminance" maskUnits="userSpaceOnUse" x="0" y="0" width="84" height="32">
<path d="M84 0H0V32H84V0Z" fill="white"/>
</mask>
<g mask="url(#mask0_1_138)">
<path fill-rule="evenodd" clip-rule="evenodd" d="M32.0945 16C32.0945 24.8366 24.9311 32 16.0945 32C7.25797 32 0.0945435 24.8366 0.0945435 16C0.0945435 7.16343 7.25797 0 16.0945 0C24.9311 0 32.0945 7.16343 32.0945 16ZM10.6309 8.93011H21.5576H21.5589C23.5666 8.93011 24.84 11.1 23.8306 12.8492L17.0857 24.5376C16.6456 25.3008 15.5428 25.3008 15.1028 24.5376L8.35922 12.8492C7.34854 11.0972 8.62185 8.93011 10.6309 8.93011ZM15.0959 21.0298V10.9267H10.6295C10.14 10.9267 9.85122 11.4466 10.085 11.8522L13.6287 18.1901L15.0959 21.0298ZM18.5584 18.1915L22.1007 11.8508C22.3345 11.4452 22.0457 10.9254 21.5562 10.9254H17.0898V21.0324L18.5584 18.1915Z" fill="white"/>
<path d="M42.1805 24.8386H45.7641V12.3407H50.7193V8.93622H37.2252V12.3407H42.1805V24.8386Z" fill="white"/>
<path d="M59.332 25.1073C63.856 25.1073 67.552 21.4117 67.552 16.8874C67.552 12.3631 63.856 8.66742 59.332 8.66742C54.7851 8.66742 51.1119 12.3631 51.1119 16.8874C51.1119 21.4117 54.7851 25.1073 59.332 25.1073ZM59.332 21.658C56.7337 21.658 54.6955 19.4631 54.6955 16.8874C54.6955 14.3116 56.7337 12.1167 59.332 12.1167C61.9074 12.1167 63.9457 14.3116 63.9457 16.8874C63.9457 19.4631 61.9074 21.658 59.332 21.658Z" fill="white"/>
<path d="M83.9057 24.8386V8.93622H80.3217V18.7464L72.5949 8.93622H69.5263V24.8386H73.0875V15.006L80.8372 24.8386H83.9057Z" fill="white"/>
</g>
</g>
<defs>
<clipPath id="clip0_1_138">
<rect width="84" height="32" fill="white"/>
</clipPath>
</defs>
</svg>
